<svg width="301" height="50" viewBox="0 0 301 50" fill="none" xmlns="http://www.w3.org/2000/svg">
<path d="M7.31638 9.21195V9.68957C6.758 9.70546 6.33101 9.76919 6.0354 9.88061C5.7562 9.97613 5.56734 10.1672 5.46881 10.4537C5.37027 10.7244 5.321 11.1543 5.321 11.7433V23.5881C5.321 24.1612 5.37027 24.5911 5.46881 24.8776C5.56734 25.1642 5.7562 25.3552 6.0354 25.4508C6.33101 25.5304 6.758 25.5702 7.31638 25.5702H9.11468C9.88658 25.5702 10.5106 25.4905 10.9869 25.3314C11.4796 25.1722 11.8655 24.9254 12.1447 24.5911C12.4403 24.2408 12.662 23.7791 12.8098 23.206C12.9576 22.6328 13.0726 21.9323 13.1547 21.1045H13.7213C13.672 21.598 13.6474 22.2508 13.6474 23.0627C13.6474 23.3652 13.6556 23.803 13.672 24.3761C13.7049 24.9334 13.7542 25.5144 13.8198 26.1194C12.9823 26.0876 12.0379 26.0717 10.9869 26.0717C9.93585 26.0558 8.99974 26.0478 8.17858 26.0478C7.8173 26.0478 7.34923 26.0478 6.77442 26.0478C6.21605 26.0478 5.6084 26.0558 4.95149 26.0717C4.29458 26.0717 3.62945 26.0796 2.95611 26.0955C2.28277 26.0955 1.64228 26.1035 1.03464 26.1194V25.6418C1.59301 25.6099 2.01179 25.5463 2.29099 25.4508C2.5866 25.3552 2.78367 25.1642 2.88221 24.8776C2.98075 24.5911 3.03001 24.1612 3.03001 23.5881V11.7433C3.03001 11.1543 2.98075 10.7244 2.88221 10.4537C2.78367 10.1672 2.5866 9.97613 2.29099 9.88061C2.01179 9.76919 1.59301 9.70546 1.03464 9.68957V9.21195C1.37952 9.22785 1.83115 9.24382 2.38952 9.25971C2.9479 9.27561 3.54733 9.28359 4.18782 9.28359C4.76263 9.28359 5.32921 9.27561 5.88759 9.25971C6.46239 9.24382 6.93865 9.22785 7.31638 9.21195ZM27.8094 9.21195C27.7437 9.76919 27.6945 10.3105 27.6616 10.8358C27.6452 11.3612 27.637 11.7592 27.637 12.0299C27.637 12.3164 27.6452 12.595 27.6616 12.8657C27.678 13.1204 27.6945 13.3353 27.7109 13.5105H27.1443C27.0457 12.5711 26.9062 11.8308 26.7255 11.2896C26.5448 10.7323 26.2328 10.3423 25.7894 10.1194C25.3624 9.88061 24.7137 9.76121 23.8433 9.76121H21.7986C21.2403 9.76121 20.8133 9.80897 20.5177 9.90449C20.2384 9.98412 20.0496 10.1672 19.9511 10.4537C19.8525 10.7244 19.8033 11.1543 19.8033 11.7433V23.5881C19.8033 24.1612 19.8525 24.5911 19.9511 24.8776C20.0496 25.1642 20.2384 25.3552 20.5177 25.4508C20.8133 25.5304 21.2403 25.5702 21.7986 25.5702H23.5969C24.6316 25.5702 25.4116 25.4349 25.9372 25.1642C26.4791 24.8935 26.8651 24.4558 27.095 23.8508C27.3413 23.2299 27.522 22.394 27.637 21.3433H28.2035C28.1543 21.7731 28.1296 22.3463 28.1296 23.0627C28.1296 23.3652 28.1379 23.803 28.1543 24.3761C28.1871 24.9334 28.2364 25.5144 28.3021 26.1194C27.4645 26.0876 26.5202 26.0717 25.4691 26.0717C24.4181 26.0558 23.482 26.0478 22.6608 26.0478C22.2996 26.0478 21.8315 26.0478 21.2567 26.0478C20.6983 26.0478 20.0906 26.0558 19.4337 26.0717C18.7769 26.0717 18.1117 26.0796 17.4384 26.0955C16.765 26.0955 16.1245 26.1035 15.5169 26.1194V25.6418C16.0752 25.6099 16.494 25.5463 16.7732 25.4508C17.0689 25.3552 17.2659 25.1642 17.3645 24.8776C17.463 24.5911 17.5123 24.1612 17.5123 23.5881V11.7433C17.5123 11.1543 17.463 10.7244 17.3645 10.4537C17.2659 10.1672 17.0689 9.97613 16.7732 9.88061C16.494 9.76919 16.0752 9.70546 15.5169 9.68957V9.21195C16.1245 9.22785 16.765 9.24382 17.4384 9.25971C18.1117 9.25971 18.7769 9.2677 19.4337 9.28359C20.0906 9.28359 20.6983 9.28359 21.2567 9.28359C21.8315 9.28359 22.2996 9.28359 22.6608 9.28359C23.4163 9.28359 24.2703 9.28359 25.2228 9.28359C26.1918 9.2677 27.054 9.24382 27.8094 9.21195ZM23.5723 17.3791C23.5723 17.3791 23.5723 17.4587 23.5723 17.6179C23.5723 17.7771 23.5723 17.8567 23.5723 17.8567H19.0642C19.0642 17.8567 19.0642 17.7771 19.0642 17.6179C19.0642 17.4587 19.0642 17.3791 19.0642 17.3791H23.5723ZM24.2867 14.2269C24.221 15.1343 24.1882 15.8269 24.1882 16.3045C24.2046 16.7821 24.2128 17.2199 24.2128 17.6179C24.2128 18.0159 24.221 18.4537 24.2374 18.9314C24.2538 19.409 24.2949 20.1015 24.3606 21.009H23.794C23.7283 20.4995 23.6462 20.006 23.5477 19.5284C23.4655 19.0349 23.2685 18.6368 22.9564 18.3343C22.6608 18.0159 22.1518 17.8567 21.4291 17.8567V17.3791C21.9711 17.3791 22.3816 17.2756 22.6608 17.0687C22.9564 16.8458 23.1699 16.5672 23.3013 16.2328C23.4327 15.8985 23.523 15.5562 23.5723 15.206C23.6216 14.8398 23.6708 14.5134 23.7201 14.2269H24.2867ZM35.8001 8.94927C36.6213 8.94927 37.2453 9.04479 37.6723 9.23583C38.0994 9.41098 38.477 9.60994 38.8055 9.83285C39.0026 9.94427 39.1586 10.0319 39.2736 10.0955C39.405 10.1433 39.5282 10.1672 39.6431 10.1672C39.8073 10.1672 39.9223 10.0796 39.988 9.90449C40.0701 9.72934 40.1358 9.46665 40.185 9.11643H40.7516C40.7352 9.3871 40.7106 9.71345 40.6777 10.0955C40.6613 10.4617 40.6449 10.9552 40.6285 11.5761C40.6285 12.1811 40.6285 12.9851 40.6285 13.9881H40.0619C40.0126 13.2239 39.8402 12.4916 39.5445 11.7911C39.2489 11.0905 38.8138 10.5174 38.2389 10.0717C37.6806 9.62591 36.9416 9.403 36.0218 9.403C35.1514 9.403 34.4289 9.6577 33.854 10.1672C33.2957 10.6767 33.0165 11.3453 33.0165 12.1731C33.0165 12.8896 33.2053 13.4946 33.5831 13.9881C33.9608 14.4657 34.4617 14.9035 35.0857 15.3015C35.7262 15.6836 36.416 16.0975 37.155 16.5433C38.009 17.0528 38.7645 17.5622 39.4214 18.0717C40.0947 18.5652 40.6202 19.1144 40.998 19.7194C41.3921 20.3244 41.5892 21.0567 41.5892 21.9164C41.5892 22.9353 41.3511 23.7791 40.8748 24.4478C40.3985 25.1164 39.7663 25.6179 38.978 25.9523C38.1897 26.2866 37.3192 26.4537 36.3667 26.4537C35.4963 26.4537 34.8065 26.3582 34.2975 26.1672C33.7884 25.9761 33.3531 25.7771 32.9918 25.5702C32.6306 25.3473 32.3513 25.2358 32.1543 25.2358C31.9901 25.2358 31.8669 25.3234 31.7848 25.4985C31.7191 25.6737 31.6616 25.9364 31.6123 26.2866H31.0457C31.0786 25.9523 31.095 25.5622 31.095 25.1164C31.1114 24.6547 31.1196 24.0577 31.1196 23.3254C31.136 22.5931 31.1443 21.6696 31.1443 20.5552H31.7109C31.7765 21.5105 31.9572 22.402 32.2528 23.2299C32.5648 24.0577 33.0329 24.7264 33.657 25.2358C34.2974 25.7293 35.1433 25.9761 36.1943 25.9761C36.7362 25.9761 37.2453 25.8726 37.7216 25.6657C38.2143 25.4428 38.6167 25.1005 38.9287 24.6388C39.2407 24.1612 39.3967 23.5483 39.3967 22.8C39.3967 22.1473 39.2325 21.5821 38.9041 21.1045C38.592 20.611 38.1486 20.1573 37.5738 19.7433C36.999 19.3134 36.3257 18.8756 35.5538 18.4299C34.7819 17.9681 34.0593 17.4985 33.386 17.0209C32.7126 16.5433 32.1707 15.994 31.7601 15.3731C31.366 14.7364 31.1689 13.9722 31.1689 13.0806C31.1689 12.1413 31.3824 11.3692 31.8094 10.7642C32.2528 10.1433 32.8276 9.68957 33.5338 9.403C34.2399 9.10054 34.9954 8.94927 35.8001 8.94927ZM56.6915 9.21195C59.6313 9.21195 61.8155 9.92837 63.2443 11.3612C64.673 12.7781 65.3874 14.8159 65.3874 17.4746C65.3874 19.2099 65.0343 20.7304 64.3282 22.0358C63.6384 23.3254 62.6284 24.3284 61.2982 25.0448C59.9679 25.7612 58.3584 26.1194 56.4698 26.1194C56.2235 26.1194 55.895 26.1114 55.4845 26.0955C55.0739 26.0796 54.6469 26.0717 54.2035 26.0717C53.7765 26.0558 53.3823 26.0478 53.021 26.0478C52.4462 26.0478 51.8796 26.0558 51.3213 26.0717C50.7629 26.0717 50.3113 26.0876 49.9664 26.1194V25.6418C50.5247 25.6099 50.9435 25.5463 51.2227 25.4508C51.5183 25.3552 51.7154 25.1642 51.814 24.8776C51.9125 24.5911 51.9618 24.1612 51.9618 23.5881V11.7433C51.9618 11.1543 51.9125 10.7244 51.814 10.4537C51.7154 10.1672 51.5183 9.97613 51.2227 9.88061C50.9435 9.76919 50.5247 9.70546 49.9664 9.68957V9.21195C50.3113 9.22785 50.7629 9.25173 51.3213 9.28359C51.8796 9.29949 52.4298 9.29949 52.9718 9.28359C53.5466 9.2677 54.1952 9.25173 54.9179 9.23583C55.6405 9.21994 56.2317 9.21195 56.6915 9.21195ZM56.0757 9.6418C55.3203 9.6418 54.8276 9.7771 54.5976 10.0478C54.3677 10.3184 54.2528 10.8677 54.2528 11.6955V23.6358C54.2528 24.4637 54.3677 25.0129 54.5976 25.2836C54.844 25.5543 55.3449 25.6896 56.1003 25.6896C57.8904 25.6896 59.2781 25.3791 60.2635 24.7582C61.2489 24.1214 61.9386 23.198 62.3328 21.9881C62.7269 20.7781 62.924 19.3055 62.924 17.5702C62.924 15.7871 62.7023 14.3144 62.2589 13.1523C61.8319 11.9741 61.1175 11.0985 60.1157 10.5254C59.1303 9.93636 57.7837 9.6418 56.0757 9.6418ZM75.8732 8.87762C77.4332 8.87762 78.7966 9.21994 79.9628 9.90449C81.1453 10.589 82.0568 11.5761 82.6973 12.8657C83.3539 14.1393 83.6826 15.6916 83.6826 17.5224C83.6826 19.3055 83.3454 20.8657 82.6726 22.203C82.0152 23.5403 81.096 24.5831 79.9136 25.3314C78.7311 26.0796 77.3762 26.4537 75.8485 26.4537C74.2883 26.4537 72.9171 26.1114 71.7346 25.4269C70.5686 24.7423 69.6571 23.7552 69.0002 22.4657C68.3597 21.1761 68.0395 19.6239 68.0395 17.809C68.0395 16.0259 68.3761 14.4657 69.0495 13.1284C69.7228 11.7911 70.6425 10.7483 71.8085 10C72.991 9.25173 74.3459 8.87762 75.8732 8.87762ZM75.7746 9.30748C74.7071 9.30748 73.7793 9.66568 72.991 10.3821C72.2027 11.0985 71.5868 12.0856 71.1434 13.3433C70.7164 14.601 70.5029 16.0577 70.5029 17.7134C70.5029 19.401 70.741 20.8737 71.2173 22.1314C71.71 23.3731 72.3669 24.3364 73.188 25.0209C74.0256 25.6896 74.9453 26.0239 75.9471 26.0239C77.0144 26.0239 77.9428 25.6657 78.7311 24.9493C79.5194 24.2328 80.1268 23.2458 80.5541 21.9881C80.9975 20.7144 81.2184 19.2577 81.2184 17.6179C81.2184 15.9144 80.9729 14.4418 80.4802 13.2C80.0036 11.9582 79.3547 11.003 78.5341 10.3343C77.7127 9.64979 76.7929 9.30748 75.7746 9.30748ZM100.984 9.21195V9.68957C100.425 9.70546 99.999 9.78509 99.7034 9.92837C99.4239 10.0717 99.2353 10.3025 99.1368 10.6209C99.0382 10.9393 98.989 11.3931 98.989 11.9821V19.1702C98.989 20.2846 98.9151 21.2558 98.7673 22.0836C98.6195 22.9114 98.3562 23.6278 97.979 24.2328C97.5679 24.9015 96.969 25.4428 96.1807 25.8567C95.3924 26.2547 94.4886 26.4537 93.4709 26.4537C92.6826 26.4537 91.9266 26.3582 91.2045 26.1672C90.4978 25.992 89.8743 25.6577 89.3323 25.1642C88.8558 24.7184 88.4778 24.2487 88.1992 23.7552C87.9359 23.2617 87.7557 22.6567 87.6572 21.9403C87.5587 21.2239 87.5094 20.3244 87.5094 19.2418V11.7433C87.5094 11.1543 87.4601 10.7244 87.3616 10.4537C87.2631 10.1672 87.066 9.97613 86.7704 9.88061C86.4909 9.76919 86.0721 9.70546 85.514 9.68957V9.21195C85.8589 9.22785 86.31 9.24382 86.8689 9.25971C87.427 9.27561 88.0267 9.28359 88.6672 9.28359C89.2415 9.28359 89.8081 9.27561 90.367 9.25971C90.9413 9.24382 91.4178 9.22785 91.7958 9.21195V9.68957C91.2369 9.70546 90.8104 9.76919 90.5148 9.88061C90.2353 9.97613 90.0467 10.1672 89.9482 10.4537C89.8497 10.7244 89.8004 11.1543 89.8004 11.7433V19.6478C89.8004 20.4597 89.8412 21.2319 89.9236 21.9642C90.0052 22.6806 90.1699 23.3174 90.4162 23.8746C90.6788 24.4159 91.0729 24.8458 91.5987 25.1642C92.1237 25.4667 92.8219 25.6179 93.6926 25.6179C94.9405 25.6179 95.9012 25.3552 96.5748 24.8299C97.2646 24.2886 97.7403 23.5483 98.0036 22.609C98.2823 21.6696 98.4224 20.611 98.4224 19.4328V11.9821C98.4224 11.3931 98.3485 10.9393 98.2007 10.6209C98.069 10.3025 97.8389 10.0717 97.5109 9.92837C97.1822 9.78509 96.7388 9.70546 96.1807 9.68957V9.21195C96.4763 9.22785 96.862 9.24382 97.3385 9.25971C97.8312 9.27561 98.2823 9.28359 98.6934 9.28359C99.1198 9.28359 99.5386 9.27561 99.9497 9.25971C100.376 9.24382 100.721 9.22785 100.984 9.21195ZM110.636 8.87762C111.72 8.87762 112.606 9.0368 113.296 9.35524C114.002 9.6577 114.626 10.0159 115.168 10.4299C115.496 10.6687 115.743 10.7005 115.907 10.5254C116.087 10.3343 116.211 9.89651 116.277 9.21195H116.843C116.81 9.80098 116.786 10.5174 116.77 11.3612C116.753 12.205 116.745 13.3194 116.745 14.7045H116.178C116.063 14.0199 115.957 13.4786 115.858 13.0806C115.76 12.6667 115.636 12.3164 115.489 12.0299C115.357 11.7433 115.176 11.4567 114.947 11.1702C114.437 10.5174 113.796 10.0478 113.025 9.76121C112.253 9.45874 111.44 9.30748 110.586 9.30748C109.781 9.30748 109.051 9.50651 108.394 9.90449C107.753 10.2866 107.195 10.8438 106.719 11.5761C106.258 12.3084 105.897 13.192 105.635 14.2269C105.389 15.2617 105.265 16.4239 105.265 17.7134C105.265 19.0508 105.405 20.2368 105.684 21.2717C105.963 22.2905 106.349 23.1502 106.842 23.8508C107.351 24.5513 107.942 25.0846 108.616 25.4508C109.305 25.801 110.044 25.9761 110.833 25.9761C111.572 25.9761 112.343 25.8328 113.148 25.5463C113.953 25.2597 114.585 24.798 115.045 24.1612C115.406 23.6995 115.653 23.198 115.784 22.6567C115.932 22.1155 116.063 21.3592 116.178 20.3881H116.745C116.745 21.8368 116.753 23.007 116.77 23.8985C116.786 24.7741 116.81 25.5144 116.843 26.1194H116.277C116.211 25.4349 116.096 25.005 115.932 24.8299C115.784 24.6547 115.529 24.6786 115.168 24.9015C114.56 25.3155 113.912 25.6816 113.222 26C112.549 26.3025 111.678 26.4537 110.611 26.4537C109.051 26.4537 107.679 26.1114 106.497 25.4269C105.331 24.7423 104.419 23.7552 103.763 22.4657C103.122 21.1761 102.802 19.6239 102.802 17.809C102.802 16.0259 103.138 14.4657 103.812 13.1284C104.485 11.7911 105.405 10.7483 106.571 10C107.753 9.25173 109.108 8.87762 110.636 8.87762ZM131.783 9.21195C131.718 9.76919 131.669 10.3105 131.636 10.8358C131.619 11.3612 131.611 11.7592 131.611 12.0299C131.611 12.3164 131.619 12.595 131.636 12.8657C131.652 13.1204 131.669 13.3353 131.685 13.5105H131.118C131.02 12.5711 130.88 11.8308 130.699 11.2896C130.519 10.7323 130.207 10.3423 129.763 10.1194C129.336 9.88061 128.688 9.76121 127.817 9.76121H125.773C125.214 9.76121 124.787 9.80897 124.492 9.90449C124.212 9.98412 124.024 10.1672 123.925 10.4537C123.826 10.7244 123.777 11.1543 123.777 11.7433V23.5881C123.777 24.1612 123.826 24.5911 123.925 24.8776C124.024 25.1642 124.212 25.3552 124.492 25.4508C124.787 25.5304 125.214 25.5702 125.773 25.5702H127.571C128.606 25.5702 129.385 25.4349 129.911 25.1642C130.453 24.8935 130.839 24.4558 131.069 23.8508C131.315 23.2299 131.496 22.394 131.611 21.3433H132.178C132.128 21.7731 132.104 22.3463 132.104 23.0627C132.104 23.3652 132.112 23.803 132.128 24.3761C132.161 24.9334 132.211 25.5144 132.276 26.1194C131.438 26.0876 130.494 26.0717 129.443 26.0717C128.392 26.0558 127.456 26.0478 126.635 26.0478C126.274 26.0478 125.806 26.0478 125.231 26.0478C124.673 26.0478 124.064 26.0558 123.408 26.0717C122.751 26.0717 122.086 26.0796 121.412 26.0955C120.739 26.0955 120.098 26.1035 119.491 26.1194V25.6418C120.049 25.6099 120.468 25.5463 120.747 25.4508C121.043 25.3552 121.24 25.1642 121.338 24.8776C121.437 24.5911 121.486 24.1612 121.486 23.5881V11.7433C121.486 11.1543 121.437 10.7244 121.338 10.4537C121.24 10.1672 121.043 9.97613 120.747 9.88061C120.468 9.76919 120.049 9.70546 119.491 9.68957V9.21195C120.098 9.22785 120.739 9.24382 121.412 9.25971C122.086 9.25971 122.751 9.2677 123.408 9.28359C124.064 9.28359 124.673 9.28359 125.231 9.28359C125.806 9.28359 126.274 9.28359 126.635 9.28359C127.39 9.28359 128.244 9.28359 129.197 9.28359C130.166 9.2677 131.028 9.24382 131.783 9.21195ZM127.546 17.3791C127.546 17.3791 127.546 17.4587 127.546 17.6179C127.546 17.7771 127.546 17.8567 127.546 17.8567H123.038C123.038 17.8567 123.038 17.7771 123.038 17.6179C123.038 17.4587 123.038 17.3791 123.038 17.3791H127.546ZM128.261 14.2269C128.195 15.1343 128.162 15.8269 128.162 16.3045C128.178 16.7821 128.187 17.2199 128.187 17.6179C128.187 18.0159 128.195 18.4537 128.211 18.9314C128.228 19.409 128.269 20.1015 128.335 21.009H127.768C127.703 20.4995 127.62 20.006 127.522 19.5284C127.439 19.0349 127.242 18.6368 126.93 18.3343C126.635 18.0159 126.126 17.8567 125.403 17.8567V17.3791C125.945 17.3791 126.355 17.2756 126.635 17.0687C126.93 16.8458 127.144 16.5672 127.275 16.2328C127.407 15.8985 127.497 15.5562 127.546 15.206C127.596 14.8398 127.645 14.5134 127.694 14.2269H128.261ZM139.774 8.94927C140.596 8.94927 141.219 9.04479 141.646 9.23583C142.074 9.41098 142.451 9.60994 142.779 9.83285C142.977 9.94427 143.133 10.0319 143.248 10.0955C143.379 10.1433 143.502 10.1672 143.617 10.1672C143.781 10.1672 143.896 10.0796 143.962 9.90449C144.044 9.72934 144.11 9.46665 144.159 9.11643H144.726C144.709 9.3871 144.685 9.71345 144.652 10.0955C144.636 10.4617 144.619 10.9552 144.602 11.5761C144.602 12.1811 144.602 12.9851 144.602 13.9881H144.036C143.987 13.2239 143.814 12.4916 143.519 11.7911C143.223 11.0905 142.788 10.5174 142.213 10.0717C141.655 9.62591 140.916 9.403 139.996 9.403C139.125 9.403 138.403 9.6577 137.828 10.1672C137.27 10.6767 136.99 11.3453 136.99 12.1731C136.99 12.8896 137.179 13.4946 137.557 13.9881C137.935 14.4657 138.435 14.9035 139.06 15.3015C139.7 15.6836 140.39 16.0975 141.129 16.5433C141.983 17.0528 142.739 17.5622 143.395 18.0717C144.069 18.5652 144.594 19.1144 144.972 19.7194C145.366 20.3244 145.563 21.0567 145.563 21.9164C145.563 22.9353 145.325 23.7791 144.849 24.4478C144.372 25.1164 143.74 25.6179 142.952 25.9523C142.164 26.2866 141.293 26.4537 140.341 26.4537C139.47 26.4537 138.78 26.3582 138.271 26.1672C137.763 25.9761 137.327 25.7771 136.966 25.5702C136.605 25.3473 136.325 25.2358 136.128 25.2358C135.964 25.2358 135.841 25.3234 135.759 25.4985C135.693 25.6737 135.636 25.9364 135.586 26.2866H135.02C135.053 25.9523 135.069 25.5622 135.069 25.1164C135.085 24.6547 135.094 24.0577 135.094 23.3254C135.11 22.5931 135.118 21.6696 135.118 20.5552H135.685C135.75 21.5105 135.931 22.402 136.227 23.2299C136.539 24.0577 137.007 24.7264 137.631 25.2358C138.271 25.7293 139.117 25.9761 140.168 25.9761C140.71 25.9761 141.219 25.8726 141.696 25.6657C142.188 25.4428 142.591 25.1005 142.903 24.6388C143.214 24.1612 143.371 23.5483 143.371 22.8C143.371 22.1473 143.207 21.5821 142.878 21.1045C142.566 20.611 142.123 20.1573 141.548 19.7433C140.973 19.3134 140.3 18.8756 139.528 18.4299C138.756 17.9681 138.034 17.4985 137.36 17.0209C136.686 16.5433 136.144 15.994 135.734 15.3731C135.34 14.7364 135.143 13.9722 135.143 13.0806C135.143 12.1413 135.356 11.3692 135.783 10.7642C136.227 10.1433 136.802 9.68957 137.508 9.403C138.214 9.10054 138.97 8.94927 139.774 8.94927ZM173.328 9.21195V9.68957C172.769 9.70546 172.342 9.76919 172.047 9.88061C171.767 9.97613 171.578 10.1672 171.48 10.4537C171.381 10.7244 171.332 11.1543 171.332 11.7433V23.5881C171.332 24.1612 171.381 24.5911 171.48 24.8776C171.578 25.1642 171.767 25.3552 172.047 25.4508C172.342 25.5463 172.769 25.6099 173.328 25.6418V26.1194C172.95 26.0876 172.474 26.0717 171.899 26.0717C171.341 26.0558 170.774 26.0478 170.199 26.0478C169.558 26.0478 168.959 26.0558 168.401 26.0717C167.843 26.0717 167.391 26.0876 167.046 26.1194V25.6418C167.604 25.6099 168.023 25.5463 168.302 25.4508C168.598 25.3552 168.795 25.1642 168.893 24.8776C168.992 24.5911 169.041 24.1612 169.041 23.5881V10.4537L169.14 10.5254L163.104 26.2388H162.71L156.502 10.7403V23.3493C156.502 23.9224 156.552 24.3761 156.65 24.7105C156.765 25.0289 156.979 25.2597 157.291 25.403C157.619 25.5304 158.104 25.6099 158.744 25.6418V26.1194C158.448 26.0876 158.063 26.0717 157.586 26.0717C157.11 26.0558 156.659 26.0478 156.231 26.0478C155.821 26.0478 155.402 26.0558 154.975 26.0717C154.565 26.0717 154.22 26.0876 153.94 26.1194V25.6418C154.498 25.6099 154.917 25.5304 155.197 25.403C155.492 25.2597 155.689 25.0289 155.788 24.7105C155.886 24.3761 155.936 23.9224 155.936 23.3493V11.7433C155.936 11.1543 155.886 10.7244 155.788 10.4537C155.689 10.1672 155.492 9.97613 155.197 9.88061C154.917 9.76919 154.498 9.70546 153.94 9.68957V9.21195C154.22 9.22785 154.565 9.24382 154.975 9.25971C155.402 9.27561 155.821 9.28359 156.231 9.28359C156.592 9.28359 156.962 9.27561 157.34 9.25971C157.734 9.24382 158.063 9.22785 158.325 9.21195L163.917 23.4926L163.498 23.6836L169.041 9.28359C169.238 9.28359 169.427 9.28359 169.608 9.28359C169.805 9.28359 170.002 9.28359 170.199 9.28359C170.774 9.28359 171.341 9.27561 171.899 9.25971C172.474 9.24382 172.95 9.22785 173.328 9.21195ZM187.692 9.21195C187.626 9.76919 187.577 10.3105 187.544 10.8358C187.528 11.3612 187.519 11.7592 187.519 12.0299C187.519 12.3164 187.528 12.595 187.544 12.8657C187.56 13.1204 187.577 13.3353 187.593 13.5105H187.026C186.928 12.5711 186.789 11.8308 186.608 11.2896C186.427 10.7323 186.115 10.3423 185.672 10.1194C185.244 9.88061 184.596 9.76121 183.725 9.76121H181.681C181.123 9.76121 180.695 9.80897 180.4 9.90449C180.12 9.98412 179.932 10.1672 179.833 10.4537C179.735 10.7244 179.685 11.1543 179.685 11.7433V23.5881C179.685 24.1612 179.735 24.5911 179.833 24.8776C179.932 25.1642 180.12 25.3552 180.4 25.4508C180.695 25.5304 181.123 25.5702 181.681 25.5702H183.479C184.514 25.5702 185.294 25.4349 185.819 25.1642C186.361 24.8935 186.747 24.4558 186.977 23.8508C187.224 23.2299 187.404 22.394 187.519 21.3433H188.086C188.036 21.7731 188.012 22.3463 188.012 23.0627C188.012 23.3652 188.02 23.803 188.036 24.3761C188.07 24.9334 188.119 25.5144 188.184 26.1194C187.347 26.0876 186.402 26.0717 185.351 26.0717C184.301 26.0558 183.364 26.0478 182.543 26.0478C182.182 26.0478 181.714 26.0478 181.139 26.0478C180.581 26.0478 179.973 26.0558 179.316 26.0717C178.659 26.0717 177.994 26.0796 177.321 26.0955C176.647 26.0955 176.006 26.1035 175.399 26.1194V25.6418C175.957 25.6099 176.376 25.5463 176.655 25.4508C176.951 25.3552 177.148 25.1642 177.247 24.8776C177.345 24.5911 177.394 24.1612 177.394 23.5881V11.7433C177.394 11.1543 177.345 10.7244 177.247 10.4537C177.148 10.1672 176.951 9.97613 176.655 9.88061C176.376 9.76919 175.957 9.70546 175.399 9.68957V9.21195C176.006 9.22785 176.647 9.24382 177.321 9.25971C177.994 9.25971 178.659 9.2677 179.316 9.28359C179.973 9.28359 180.581 9.28359 181.139 9.28359C181.714 9.28359 182.182 9.28359 182.543 9.28359C183.298 9.28359 184.153 9.28359 185.105 9.28359C186.074 9.2677 186.936 9.24382 187.692 9.21195ZM183.455 17.3791C183.455 17.3791 183.455 17.4587 183.455 17.6179C183.455 17.7771 183.455 17.8567 183.455 17.8567H178.946C178.946 17.8567 178.946 17.7771 178.946 17.6179C178.946 17.4587 178.946 17.3791 178.946 17.3791H183.455ZM184.169 14.2269C184.103 15.1343 184.07 15.8269 184.07 16.3045C184.087 16.7821 184.095 17.2199 184.095 17.6179C184.095 18.0159 184.103 18.4537 184.12 18.9314C184.136 19.409 184.177 20.1015 184.243 21.009H183.676C183.611 20.4995 183.528 20.006 183.43 19.5284C183.348 19.0349 183.15 18.6368 182.839 18.3343C182.543 18.0159 182.034 17.8567 181.311 17.8567V17.3791C181.853 17.3791 182.264 17.2756 182.543 17.0687C182.839 16.8458 183.052 16.5672 183.184 16.2328C183.315 15.8985 183.405 15.5562 183.455 15.206C183.504 14.8398 183.553 14.5134 183.602 14.2269H184.169ZM190.411 9.21195C190.755 9.22785 191.207 9.24382 191.766 9.25971C192.324 9.27561 192.874 9.28359 193.416 9.28359C194.188 9.28359 194.927 9.27561 195.633 9.25971C196.339 9.24382 196.84 9.23583 197.136 9.23583C198.466 9.23583 199.566 9.41889 200.437 9.78509C201.324 10.1513 201.98 10.6528 202.408 11.2896C202.851 11.9105 203.073 12.611 203.073 13.3911C203.073 13.8687 202.974 14.3781 202.777 14.9194C202.58 15.4607 202.235 15.9702 201.742 16.4478C201.266 16.9254 200.609 17.3234 199.772 17.6418C198.934 17.9443 197.875 18.0955 196.594 18.0955H194.229V17.6179H196.347C197.514 17.6179 198.401 17.4428 199.008 17.0925C199.632 16.7264 200.051 16.2487 200.264 15.6597C200.495 15.0547 200.609 14.3861 200.609 13.6537C200.609 12.3961 200.297 11.4249 199.673 10.7403C199.066 10.0398 198.014 9.68957 196.52 9.68957C195.765 9.68957 195.272 9.82486 195.042 10.0955C194.812 10.3662 194.697 10.9155 194.697 11.7433V23.5881C194.697 24.1612 194.746 24.5911 194.845 24.8776C194.943 25.1642 195.132 25.3552 195.411 25.4508C195.707 25.5463 196.134 25.6099 196.692 25.6418V26.1194C196.314 26.0876 195.839 26.0717 195.264 26.0717C194.705 26.0558 194.139 26.0478 193.564 26.0478C192.923 26.0478 192.324 26.0558 191.766 26.0717C191.207 26.0717 190.755 26.0876 190.411 26.1194V25.6418C190.969 25.6099 191.388 25.5463 191.667 25.4508C191.963 25.3552 192.16 25.1642 192.258 24.8776C192.357 24.5911 192.406 24.1612 192.406 23.5881V11.7433C192.406 11.1543 192.357 10.7244 192.258 10.4537C192.16 10.1672 191.963 9.97613 191.667 9.88061C191.388 9.76919 190.969 9.70546 190.411 9.68957V9.21195ZM194.327 17.6896C195.214 17.7214 195.913 17.7612 196.421 17.809C196.93 17.8408 197.341 17.8726 197.653 17.9045C197.982 17.9364 198.294 17.9761 198.589 18.0239C199.689 18.199 200.478 18.5254 200.954 19.003C201.447 19.4647 201.808 20.189 202.038 21.1761L202.654 23.612C202.818 24.3125 202.983 24.8219 203.147 25.1403C203.327 25.4428 203.598 25.5861 203.959 25.5702C204.239 25.5543 204.468 25.4667 204.649 25.3075C204.846 25.1483 205.052 24.9334 205.265 24.6627L205.635 24.9254C205.29 25.4189 204.929 25.801 204.551 26.0717C204.19 26.3264 203.672 26.4537 202.999 26.4537C202.391 26.4537 201.857 26.2786 201.398 25.9284C200.938 25.5781 200.593 24.8935 200.363 23.8746L199.821 21.4866C199.673 20.802 199.501 20.2129 199.304 19.7194C199.123 19.2099 198.86 18.812 198.515 18.5254C198.187 18.2388 197.694 18.0955 197.037 18.0955H194.377L194.327 17.6896ZM220.513 9.21195V9.68957C220.2 9.75322 219.864 9.93636 219.503 10.2388C219.158 10.5413 218.846 11.0508 218.567 11.7672L212.778 26.2388C212.745 26.2388 212.712 26.2388 212.679 26.2388C212.646 26.2388 212.613 26.2388 212.581 26.2388C212.548 26.2388 212.515 26.2388 212.482 26.2388C212.449 26.2388 212.416 26.2388 212.384 26.2388L206.373 11.2179C206.127 10.6129 205.847 10.2149 205.535 10.0239C205.223 9.81695 204.936 9.70546 204.672 9.68957V9.21195C205.001 9.22785 205.404 9.24382 205.88 9.25971C206.373 9.27561 206.849 9.28359 207.309 9.28359C207.949 9.28359 208.548 9.27561 209.107 9.25971C209.665 9.24382 210.117 9.22785 210.462 9.21195V9.68957C209.903 9.70546 209.477 9.76919 209.181 9.88061C208.902 9.99203 208.745 10.1911 208.713 10.4776C208.696 10.7483 208.795 11.1543 209.009 11.6955L213.591 23.4687L213.197 23.8746L217.482 13.0806C217.828 12.2209 217.992 11.5523 217.976 11.0746C217.959 10.5811 217.77 10.2308 217.409 10.0239C217.047 9.81695 216.522 9.70546 215.832 9.68957V9.21195C216.308 9.22785 216.793 9.24382 217.286 9.25971C217.779 9.27561 218.238 9.28359 218.665 9.28359C219.092 9.28359 219.445 9.27561 219.725 9.25971C220.003 9.24382 220.267 9.22785 220.513 9.21195ZM233.665 9.21195C233.598 9.76919 233.549 10.3105 233.517 10.8358C233.5 11.3612 233.492 11.7592 233.492 12.0299C233.492 12.3164 233.5 12.595 233.517 12.8657C233.533 13.1204 233.549 13.3353 233.566 13.5105H232.999C232.901 12.5711 232.761 11.8308 232.581 11.2896C232.4 10.7323 232.088 10.3423 231.645 10.1194C231.217 9.88061 230.568 9.76121 229.698 9.76121H227.654C227.095 9.76121 226.668 9.80897 226.373 9.90449C226.093 9.98412 225.905 10.1672 225.806 10.4537C225.708 10.7244 225.658 11.1543 225.658 11.7433V23.5881C225.658 24.1612 225.708 24.5911 225.806 24.8776C225.905 25.1642 226.093 25.3552 226.373 25.4508C226.668 25.5304 227.095 25.5702 227.654 25.5702H229.452C230.487 25.5702 231.267 25.4349 231.792 25.1642C232.334 24.8935 232.72 24.4558 232.95 23.8508C233.197 23.2299 233.377 22.394 233.492 21.3433H234.059C234.009 21.7731 233.985 22.3463 233.985 23.0627C233.985 23.3652 233.993 23.803 234.009 24.3761C234.042 24.9334 234.091 25.5144 234.157 26.1194C233.32 26.0876 232.375 26.0717 231.324 26.0717C230.273 26.0558 229.337 26.0478 228.516 26.0478C228.154 26.0478 227.686 26.0478 227.112 26.0478C226.553 26.0478 225.946 26.0558 225.289 26.0717C224.631 26.0717 223.966 26.0796 223.294 26.0955C222.62 26.0955 221.979 26.1035 221.372 26.1194V25.6418C221.93 25.6099 222.349 25.5463 222.628 25.4508C222.924 25.3552 223.121 25.1642 223.22 24.8776C223.318 24.5911 223.367 24.1612 223.367 23.5881V11.7433C223.367 11.1543 223.318 10.7244 223.22 10.4537C223.121 10.1672 222.924 9.97613 222.628 9.88061C222.349 9.76919 221.93 9.70546 221.372 9.68957V9.21195C221.979 9.22785 222.62 9.24382 223.294 9.25971C223.966 9.25971 224.631 9.2677 225.289 9.28359C225.946 9.28359 226.553 9.28359 227.112 9.28359C227.686 9.28359 228.154 9.28359 228.516 9.28359C229.271 9.28359 230.125 9.28359 231.078 9.28359C232.046 9.2677 232.909 9.24382 233.665 9.21195ZM229.427 17.3791C229.427 17.3791 229.427 17.4587 229.427 17.6179C229.427 17.7771 229.427 17.8567 229.427 17.8567H224.919C224.919 17.8567 224.919 17.7771 224.919 17.6179C224.919 17.4587 224.919 17.3791 224.919 17.3791H229.427ZM230.142 14.2269C230.076 15.1343 230.043 15.8269 230.043 16.3045C230.059 16.7821 230.068 17.2199 230.068 17.6179C230.068 18.0159 230.076 18.4537 230.093 18.9314C230.109 19.409 230.15 20.1015 230.216 21.009H229.649C229.583 20.4995 229.501 20.006 229.403 19.5284C229.32 19.0349 229.123 18.6368 228.812 18.3343C228.516 18.0159 228.006 17.8567 227.284 17.8567V17.3791C227.826 17.3791 228.237 17.2756 228.516 17.0687C228.812 16.8458 229.025 16.5672 229.156 16.2328C229.287 15.8985 229.378 15.5562 229.427 15.206C229.477 14.8398 229.526 14.5134 229.575 14.2269H230.142ZM242.665 9.21195V9.68957C242.106 9.70546 241.68 9.76919 241.384 9.88061C241.105 9.97613 240.916 10.1672 240.818 10.4537C240.719 10.7244 240.67 11.1543 240.67 11.7433V23.5881C240.67 24.1612 240.719 24.5911 240.818 24.8776C240.916 25.1642 241.105 25.3552 241.384 25.4508C241.68 25.5463 242.106 25.6099 242.665 25.6418V26.1194C242.287 26.0876 241.811 26.0717 241.237 26.0717C240.678 26.0558 240.111 26.0478 239.537 26.0478C238.896 26.0478 238.297 26.0558 237.738 26.0717C237.18 26.0717 236.728 26.0876 236.384 26.1194V25.6418C236.942 25.6099 237.36 25.5463 237.64 25.4508C237.936 25.3552 238.133 25.1642 238.231 24.8776C238.33 24.5911 238.379 24.1612 238.379 23.5881V11.7433C238.379 11.1543 238.33 10.7244 238.231 10.4537C238.133 10.1672 237.936 9.97613 237.64 9.88061C237.36 9.76919 236.942 9.70546 236.384 9.68957V9.21195C236.728 9.22785 237.18 9.24382 237.738 9.25971C238.297 9.27561 238.896 9.28359 239.537 9.28359C240.111 9.28359 240.678 9.27561 241.237 9.25971C241.811 9.24382 242.287 9.22785 242.665 9.21195ZM251.013 9.21195V9.68957C250.454 9.70546 250.028 9.76919 249.732 9.88061C249.453 9.97613 249.264 10.1672 249.166 10.4537C249.067 10.7244 249.018 11.1543 249.018 11.7433V23.5881C249.018 24.1612 249.067 24.5911 249.166 24.8776C249.264 25.1642 249.453 25.3552 249.732 25.4508C250.028 25.5304 250.454 25.5702 251.013 25.5702H252.812C253.583 25.5702 254.207 25.4905 254.684 25.3314C255.176 25.1722 255.562 24.9254 255.842 24.5911C256.137 24.2408 256.359 23.7791 256.507 23.206C256.654 22.6328 256.769 21.9323 256.852 21.1045H257.418C257.369 21.598 257.344 22.2508 257.344 23.0627C257.344 23.3652 257.352 23.803 257.369 24.3761C257.401 24.9334 257.45 25.5144 257.517 26.1194C256.679 26.0876 255.735 26.0717 254.684 26.0717C253.632 26.0558 252.696 26.0478 251.875 26.0478C251.514 26.0478 251.046 26.0478 250.471 26.0478C249.912 26.0478 249.305 26.0558 248.648 26.0717C247.991 26.0717 247.326 26.0796 246.653 26.0955C245.979 26.0955 245.339 26.1035 244.732 26.1194V25.6418C245.29 25.6099 245.708 25.5463 245.988 25.4508C246.283 25.3552 246.481 25.1642 246.579 24.8776C246.678 24.5911 246.727 24.1612 246.727 23.5881V11.7433C246.727 11.1543 246.678 10.7244 246.579 10.4537C246.481 10.1672 246.283 9.97613 245.988 9.88061C245.708 9.76919 245.29 9.70546 244.732 9.68957V9.21195C245.076 9.22785 245.527 9.24382 246.086 9.25971C246.645 9.27561 247.244 9.28359 247.885 9.28359C248.459 9.28359 249.026 9.27561 249.584 9.25971C250.159 9.24382 250.635 9.22785 251.013 9.21195ZM265.495 9.21195V9.68957C264.937 9.70546 264.51 9.76919 264.214 9.88061C263.935 9.97613 263.746 10.1672 263.648 10.4537C263.549 10.7244 263.5 11.1543 263.5 11.7433V23.5881C263.5 24.1612 263.549 24.5911 263.648 24.8776C263.746 25.1642 263.935 25.3552 264.214 25.4508C264.51 25.5304 264.937 25.5702 265.495 25.5702H267.293C268.066 25.5702 268.689 25.4905 269.166 25.3314C269.658 25.1722 270.044 24.9254 270.323 24.5911C270.619 24.2408 270.841 23.7791 270.989 23.206C271.136 22.6328 271.251 21.9323 271.333 21.1045H271.9C271.851 21.598 271.826 22.2508 271.826 23.0627C271.826 23.3652 271.835 23.803 271.851 24.3761C271.884 24.9334 271.933 25.5144 271.999 26.1194C271.161 26.0876 270.216 26.0717 269.166 26.0717C268.115 26.0558 267.179 26.0478 266.357 26.0478C265.996 26.0478 265.528 26.0478 264.953 26.0478C264.395 26.0478 263.787 26.0558 263.13 26.0717C262.474 26.0717 261.808 26.0796 261.135 26.0955C260.461 26.0955 259.821 26.1035 259.213 26.1194V25.6418C259.771 25.6099 260.19 25.5463 260.47 25.4508C260.765 25.3552 260.962 25.1642 261.061 24.8776C261.159 24.5911 261.209 24.1612 261.209 23.5881V11.7433C261.209 11.1543 261.159 10.7244 261.061 10.4537C260.962 10.1672 260.765 9.97613 260.47 9.88061C260.19 9.76919 259.771 9.70546 259.213 9.68957V9.21195C259.558 9.22785 260.01 9.24382 260.568 9.25971C261.126 9.27561 261.726 9.28359 262.367 9.28359C262.942 9.28359 263.508 9.27561 264.066 9.25971C264.641 9.24382 265.117 9.22785 265.495 9.21195ZM285.989 9.21195C285.922 9.76919 285.873 10.3105 285.841 10.8358C285.824 11.3612 285.816 11.7592 285.816 12.0299C285.816 12.3164 285.824 12.595 285.841 12.8657C285.857 13.1204 285.873 13.3353 285.89 13.5105H285.323C285.225 12.5711 285.085 11.8308 284.905 11.2896C284.724 10.7323 284.412 10.3423 283.969 10.1194C283.541 9.88061 282.892 9.76121 282.022 9.76121H279.978C279.419 9.76121 278.992 9.80897 278.697 9.90449C278.417 9.98412 278.229 10.1672 278.13 10.4537C278.032 10.7244 277.982 11.1543 277.982 11.7433V23.5881C277.982 24.1612 278.032 24.5911 278.13 24.8776C278.229 25.1642 278.417 25.3552 278.697 25.4508C278.992 25.5304 279.419 25.5702 279.978 25.5702H281.776C282.811 25.5702 283.591 25.4349 284.116 25.1642C284.658 24.8935 285.044 24.4558 285.274 23.8508C285.52 23.2299 285.701 22.394 285.816 21.3433H286.383C286.333 21.7731 286.309 22.3463 286.309 23.0627C286.309 23.3652 286.316 23.803 286.333 24.3761C286.366 24.9334 286.415 25.5144 286.481 26.1194C285.644 26.0876 284.699 26.0717 283.648 26.0717C282.597 26.0558 281.661 26.0478 280.84 26.0478C280.478 26.0478 280.01 26.0478 279.436 26.0478C278.877 26.0478 278.27 26.0558 277.613 26.0717C276.955 26.0717 276.29 26.0796 275.618 26.0955C274.944 26.0955 274.303 26.1035 273.696 26.1194V25.6418C274.254 25.6099 274.673 25.5463 274.952 25.4508C275.248 25.3552 275.445 25.1642 275.544 24.8776C275.642 24.5911 275.691 24.1612 275.691 23.5881V11.7433C275.691 11.1543 275.642 10.7244 275.544 10.4537C275.445 10.1672 275.248 9.97613 274.952 9.88061C274.673 9.76919 274.254 9.70546 273.696 9.68957V9.21195C274.303 9.22785 274.944 9.24382 275.618 9.25971C276.29 9.25971 276.955 9.2677 277.613 9.28359C278.27 9.28359 278.877 9.28359 279.436 9.28359C280.01 9.28359 280.478 9.28359 280.84 9.28359C281.595 9.28359 282.449 9.28359 283.402 9.28359C284.37 9.2677 285.233 9.24382 285.989 9.21195ZM281.751 17.3791C281.751 17.3791 281.751 17.4587 281.751 17.6179C281.751 17.7771 281.751 17.8567 281.751 17.8567H277.243C277.243 17.8567 277.243 17.7771 277.243 17.6179C277.243 17.4587 277.243 17.3791 277.243 17.3791H281.751ZM282.466 14.2269C282.4 15.1343 282.367 15.8269 282.367 16.3045C282.383 16.7821 282.392 17.2199 282.392 17.6179C282.392 18.0159 282.4 18.4537 282.417 18.9314C282.433 19.409 282.474 20.1015 282.54 21.009H281.973C281.907 20.4995 281.825 20.006 281.727 19.5284C281.644 19.0349 281.447 18.6368 281.136 18.3343C280.84 18.0159 280.33 17.8567 279.608 17.8567V17.3791C280.15 17.3791 280.561 17.2756 280.84 17.0687C281.136 16.8458 281.349 16.5672 281.48 16.2328C281.611 15.8985 281.702 15.5562 281.751 15.206C281.801 14.8398 281.85 14.5134 281.899 14.2269H282.466ZM293.979 8.94927C294.8 8.94927 295.424 9.04479 295.851 9.23583C296.278 9.41098 296.656 9.60994 296.985 9.83285C297.182 9.94427 297.337 10.0319 297.453 10.0955C297.584 10.1433 297.707 10.1672 297.822 10.1672C297.986 10.1672 298.101 10.0796 298.167 9.90449C298.249 9.72934 298.315 9.46665 298.364 9.11643H298.931C298.914 9.3871 298.889 9.71345 298.857 10.0955C298.84 10.4617 298.824 10.9552 298.808 11.5761C298.808 12.1811 298.808 12.9851 298.808 13.9881H298.241C298.192 13.2239 298.019 12.4916 297.724 11.7911C297.428 11.0905 296.992 10.5174 296.418 10.0717C295.859 9.62591 295.12 9.403 294.201 9.403C293.33 9.403 292.607 9.6577 292.033 10.1672C291.474 10.6767 291.196 11.3453 291.196 12.1731C291.196 12.8896 291.384 13.4946 291.762 13.9881C292.139 14.4657 292.641 14.9035 293.265 15.3015C293.905 15.6836 294.595 16.0975 295.334 16.5433C296.188 17.0528 296.943 17.5622 297.601 18.0717C298.273 18.5652 298.799 19.1144 299.177 19.7194C299.571 20.3244 299.768 21.0567 299.768 21.9164C299.768 22.9353 299.53 23.7791 299.054 24.4478C298.577 25.1164 297.945 25.6179 297.157 25.9523C296.369 26.2866 295.498 26.4537 294.546 26.4537C293.675 26.4537 292.985 26.3582 292.477 26.1672C291.967 25.9761 291.532 25.7771 291.171 25.5702C290.809 25.3473 290.53 25.2358 290.333 25.2358C290.169 25.2358 290.045 25.3234 289.964 25.4985C289.898 25.6737 289.841 25.9364 289.791 26.2866H289.225C289.257 25.9523 289.274 25.5622 289.274 25.1164C289.29 24.6547 289.298 24.0577 289.298 23.3254C289.315 22.5931 289.323 21.6696 289.323 20.5552H289.89C289.955 21.5105 290.136 22.402 290.432 23.2299C290.744 24.0577 291.212 24.7264 291.836 25.2358C292.477 25.7293 293.322 25.9761 294.373 25.9761C294.915 25.9761 295.424 25.8726 295.901 25.6657C296.393 25.4428 296.795 25.1005 297.108 24.6388C297.42 24.1612 297.576 23.5483 297.576 22.8C297.576 22.1473 297.411 21.5821 297.083 21.1045C296.771 20.611 296.327 20.1573 295.753 19.7433C295.178 19.3134 294.504 18.8756 293.733 18.4299C292.961 17.9681 292.238 17.4985 291.565 17.0209C290.892 16.5433 290.35 15.994 289.939 15.3731C289.545 14.7364 289.348 13.9722 289.348 13.0806C289.348 12.1413 289.561 11.3692 289.989 10.7642C290.432 10.1433 291.006 9.68957 291.713 9.403C292.419 9.10054 293.174 8.94927 293.979 8.94927Z" fill="#454545"/>
<path d="M1.31441 43.5897C44.4324 43.5897 68.6074 43.5897 111.725 43.5897V44.8718H1.31441V43.5897Z" fill="#454545"/>
<path d="M299.686 43.5897H189.275V44.8718H299.686V43.5897Z" fill="#454545"/>
<path d="M123.606 38.9329C124.114 38.9329 124.53 39.0075 124.853 39.1567C125.184 39.2985 125.477 39.4664 125.731 39.6605C125.885 39.7724 126 39.7873 126.077 39.7052C126.162 39.6157 126.22 39.4105 126.251 39.0896H126.516C126.501 39.3657 126.489 39.7015 126.482 40.097C126.474 40.4926 126.47 41.015 126.47 41.6642H126.204C126.151 41.3433 126.101 41.0896 126.054 40.903C126.008 40.709 125.95 40.5448 125.881 40.4105C125.82 40.2761 125.735 40.1418 125.627 40.0075C125.388 39.7015 125.088 39.4814 124.726 39.347C124.365 39.2052 123.984 39.1344 123.583 39.1344C123.206 39.1344 122.863 39.2276 122.556 39.4142C122.255 39.5933 121.994 39.8545 121.77 40.1978C121.555 40.5411 121.385 40.9552 121.262 41.4403C121.147 41.9254 121.089 42.4702 121.089 43.0747C121.089 43.7015 121.154 44.2575 121.285 44.7426C121.416 45.2202 121.597 45.6232 121.828 45.9515C122.067 46.2799 122.344 46.5299 122.659 46.7015C122.983 46.8657 123.329 46.9478 123.699 46.9478C124.045 46.9478 124.407 46.8806 124.784 46.7463C125.161 46.612 125.458 46.3955 125.673 46.097C125.843 45.8806 125.958 45.6455 126.02 45.3918C126.089 45.1381 126.151 44.7836 126.204 44.3284H126.47C126.47 45.0075 126.474 45.556 126.482 45.9739C126.489 46.3844 126.501 46.7314 126.516 47.0149H126.251C126.22 46.6941 126.166 46.4926 126.089 46.4105C126.02 46.3284 125.9 46.3396 125.731 46.4441C125.446 46.6381 125.142 46.8097 124.819 46.959C124.503 47.1008 124.095 47.1717 123.595 47.1717C122.863 47.1717 122.221 47.0112 121.666 46.6903C121.12 46.3694 120.693 45.9067 120.385 45.3023C120.084 44.6978 119.934 43.9702 119.934 43.1194C119.934 42.2836 120.092 41.5523 120.408 40.9254C120.723 40.2985 121.154 39.8097 121.701 39.459C122.255 39.1082 122.89 38.9329 123.606 38.9329ZM131.729 38.25V42.4366C131.93 41.9291 132.207 41.5784 132.561 41.3844C132.923 41.1903 133.3 41.0933 133.693 41.0933C133.985 41.0933 134.228 41.1306 134.42 41.2052C134.62 41.2799 134.786 41.3844 134.917 41.5187C135.063 41.6679 135.167 41.8545 135.228 42.0784C135.29 42.3023 135.321 42.6045 135.321 42.9851V45.9739C135.321 46.2873 135.386 46.5 135.517 46.612C135.656 46.7239 135.883 46.7799 136.198 46.7799V47.0149C136.067 47.0075 135.867 47 135.598 46.9926C135.328 46.9776 135.067 46.9702 134.813 46.9702C134.559 46.9702 134.308 46.9776 134.062 46.9926C133.823 47 133.642 47.0075 133.519 47.0149V46.7799C133.796 46.7799 133.993 46.7239 134.108 46.612C134.224 46.5 134.281 46.2873 134.281 45.9739V42.7388C134.281 42.5075 134.262 42.2948 134.224 42.1008C134.185 41.9067 134.097 41.75 133.958 41.6306C133.827 41.5112 133.623 41.4515 133.346 41.4515C133.03 41.4515 132.749 41.5373 132.503 41.709C132.264 41.8806 132.076 42.1194 131.937 42.4254C131.799 42.7314 131.729 43.0821 131.729 43.4776V45.9739C131.729 46.2873 131.787 46.5 131.903 46.612C132.018 46.7239 132.214 46.7799 132.492 46.7799V47.0149C132.368 47.0075 132.184 47 131.937 46.9926C131.699 46.9776 131.452 46.9702 131.198 46.9702C130.944 46.9702 130.683 46.9776 130.413 46.9926C130.144 47 129.943 47.0075 129.813 47.0149V46.7799C130.128 46.7799 130.351 46.7239 130.482 46.612C130.621 46.5 130.69 46.2873 130.69 45.9739V39.5933C130.69 39.2575 130.629 39.0112 130.505 38.8545C130.382 38.6903 130.151 38.6082 129.813 38.6082V38.3732C130.059 38.3955 130.298 38.4067 130.529 38.4067C130.752 38.4067 130.963 38.3955 131.164 38.3732C131.371 38.3433 131.56 38.3023 131.729 38.25ZM141.844 41.0933C142.337 41.0933 142.779 41.1978 143.172 41.4067C143.565 41.6157 143.876 41.9441 144.107 42.3918C144.346 42.8396 144.465 43.4217 144.465 44.1381C144.465 44.8545 144.346 45.4366 144.107 45.8844C143.876 46.3247 143.565 46.6493 143.172 46.8582C142.779 47.0672 142.337 47.1717 141.844 47.1717C141.359 47.1717 140.917 47.0672 140.516 46.8582C140.124 46.6493 139.808 46.3247 139.569 45.8844C139.338 45.4366 139.223 44.8545 139.223 44.1381C139.223 43.4217 139.338 42.8396 139.569 42.3918C139.808 41.9441 140.124 41.6157 140.516 41.4067C140.917 41.1978 141.359 41.0933 141.844 41.0933ZM141.844 41.3172C141.405 41.3172 141.044 41.5373 140.759 41.9776C140.482 42.4179 140.343 43.1381 140.343 44.1381C140.343 45.1381 140.482 45.8582 140.759 46.2985C141.044 46.7314 141.405 46.9478 141.844 46.9478C142.283 46.9478 142.641 46.7314 142.918 46.2985C143.203 45.8582 143.345 45.1381 143.345 44.1381C143.345 43.1381 143.203 42.4179 142.918 41.9776C142.641 41.5373 142.283 41.3172 141.844 41.3172ZM150.537 41.0933C150.783 41.0933 151.022 41.1232 151.253 41.1829C151.484 41.2426 151.692 41.3321 151.876 41.4515C152.054 41.5635 152.188 41.6941 152.281 41.8433C152.373 41.9851 152.419 42.1418 152.419 42.3135C152.419 42.5149 152.361 42.6717 152.246 42.7836C152.13 42.8881 151.984 42.9403 151.807 42.9403C151.638 42.9403 151.488 42.8918 151.357 42.7948C151.234 42.6978 151.172 42.5597 151.172 42.3806C151.172 42.209 151.218 42.0709 151.311 41.9664C151.411 41.862 151.526 41.7948 151.657 41.7649C151.58 41.6306 151.441 41.5187 151.241 41.4291C151.049 41.3396 150.841 41.2948 150.618 41.2948C150.425 41.2948 150.233 41.3396 150.04 41.4291C149.848 41.5187 149.671 41.6679 149.509 41.8769C149.348 42.0784 149.217 42.3582 149.117 42.7164C149.017 43.0672 148.967 43.5075 148.967 44.0373C148.967 44.6941 149.044 45.2164 149.197 45.6045C149.351 45.9926 149.552 46.2724 149.798 46.4441C150.052 46.6082 150.329 46.6903 150.629 46.6903C150.829 46.6903 151.033 46.653 151.241 46.5784C151.449 46.5038 151.645 46.3844 151.83 46.2202C152.015 46.0485 152.173 45.8209 152.304 45.5373L152.523 45.6157C152.446 45.8545 152.319 46.097 152.142 46.3433C151.965 46.5821 151.734 46.7799 151.449 46.9366C151.164 47.0933 150.814 47.1717 150.398 47.1717C149.921 47.1717 149.49 47.0523 149.105 46.8135C148.72 46.5747 148.412 46.2351 148.181 45.7948C147.958 45.347 147.846 44.8172 147.846 44.2052C147.846 43.5933 147.958 43.056 148.181 42.5933C148.412 42.1232 148.732 41.7575 149.14 41.4963C149.548 41.2276 150.013 41.0933 150.537 41.0933ZM158.405 41.0933C158.897 41.0933 159.34 41.1978 159.732 41.4067C160.125 41.6157 160.437 41.9441 160.668 42.3918C160.906 42.8396 161.026 43.4217 161.026 44.1381C161.026 44.8545 160.906 45.4366 160.668 45.8844C160.437 46.3247 160.125 46.6493 159.732 46.8582C159.34 47.0672 158.897 47.1717 158.405 47.1717C157.92 47.1717 157.477 47.0672 157.077 46.8582C156.684 46.6493 156.368 46.3247 156.13 45.8844C155.899 45.4366 155.783 44.8545 155.783 44.1381C155.783 43.4217 155.899 42.8396 156.13 42.3918C156.368 41.9441 156.684 41.6157 157.077 41.4067C157.477 41.1978 157.92 41.0933 158.405 41.0933ZM158.405 41.3172C157.966 41.3172 157.604 41.5373 157.319 41.9776C157.042 42.4179 156.903 43.1381 156.903 44.1381C156.903 45.1381 157.042 45.8582 157.319 46.2985C157.604 46.7314 157.966 46.9478 158.405 46.9478C158.843 46.9478 159.201 46.7314 159.478 46.2985C159.763 45.8582 159.906 45.1381 159.906 44.1381C159.906 43.1381 159.763 42.4179 159.478 41.9776C159.201 41.5373 158.843 41.3172 158.405 41.3172ZM165.934 38.2388V45.9739C165.934 46.2873 166 46.5 166.13 46.612C166.269 46.7239 166.496 46.7799 166.812 46.7799V47.0149C166.681 47.0075 166.481 47 166.211 46.9926C165.95 46.9776 165.684 46.9702 165.415 46.9702C165.153 46.9702 164.887 46.9776 164.618 46.9926C164.348 47 164.148 47.0075 164.017 47.0149V46.7799C164.333 46.7799 164.556 46.7239 164.687 46.612C164.826 46.5 164.895 46.2873 164.895 45.9739V39.5821C164.895 39.2463 164.833 39 164.71 38.8433C164.587 38.6791 164.356 38.597 164.017 38.597V38.362C164.264 38.3844 164.502 38.3955 164.733 38.3955C164.956 38.3955 165.168 38.3844 165.368 38.362C165.576 38.3321 165.765 38.2911 165.934 38.2388ZM171.351 47.0933C171.036 47.0933 170.762 47.0373 170.532 46.9254C170.301 46.806 170.124 46.6418 170 46.4329C169.885 46.2239 169.827 45.9814 169.827 45.7052C169.827 45.3769 169.904 45.1082 170.058 44.8993C170.22 44.6903 170.424 44.5224 170.67 44.3955C170.916 44.2687 171.174 44.1642 171.444 44.0821C171.721 43.9926 171.983 43.9105 172.229 43.8358C172.475 43.7538 172.675 43.6605 172.829 43.556C172.991 43.4515 173.072 43.3135 173.072 43.1418V42.4478C173.072 42.1344 173.022 41.8955 172.922 41.7314C172.829 41.5672 172.702 41.459 172.541 41.4067C172.379 41.347 172.198 41.3172 171.998 41.3172C171.806 41.3172 171.598 41.3433 171.374 41.3955C171.159 41.4478 170.986 41.556 170.855 41.7202C171.001 41.75 171.128 41.8247 171.236 41.9441C171.344 42.0635 171.398 42.2164 171.398 42.403C171.398 42.5896 171.336 42.7388 171.213 42.8508C171.09 42.9552 170.932 43.0075 170.739 43.0075C170.516 43.0075 170.351 42.9403 170.243 42.806C170.143 42.6642 170.093 42.5075 170.093 42.3358C170.093 42.1418 170.143 41.9851 170.243 41.8657C170.343 41.7463 170.47 41.6344 170.624 41.5299C170.801 41.4105 171.028 41.3097 171.305 41.2276C171.59 41.1381 171.909 41.0933 172.264 41.0933C172.579 41.0933 172.849 41.1306 173.072 41.2052C173.295 41.2724 173.48 41.3732 173.626 41.5075C173.826 41.6866 173.957 41.9067 174.019 42.1679C174.08 42.4217 174.111 42.7276 174.111 43.0858V46.1978C174.111 46.3844 174.138 46.5187 174.192 46.6008C174.254 46.6829 174.346 46.7239 174.469 46.7239C174.554 46.7239 174.635 46.7052 174.712 46.6679C174.789 46.6306 174.881 46.5709 174.989 46.4888L175.116 46.6791C174.954 46.7985 174.8 46.8993 174.654 46.9814C174.508 47.056 174.311 47.0933 174.065 47.0933C173.842 47.0933 173.657 47.056 173.511 46.9814C173.364 46.9067 173.253 46.7985 173.176 46.6567C173.107 46.5075 173.072 46.3209 173.072 46.097C172.864 46.4329 172.614 46.6829 172.321 46.847C172.037 47.0112 171.713 47.0933 171.351 47.0933ZM171.767 46.6455C172.021 46.6455 172.256 46.5747 172.471 46.4329C172.695 46.2911 172.895 46.0784 173.072 45.7948V43.6008C172.98 43.7276 172.845 43.8358 172.668 43.9254C172.491 44.0075 172.298 44.0933 172.09 44.1829C171.883 44.265 171.682 44.3657 171.49 44.4851C171.305 44.597 171.151 44.7463 171.028 44.9329C170.905 45.1194 170.843 45.362 170.843 45.6605C170.843 45.959 170.924 46.1978 171.086 46.3769C171.255 46.556 171.482 46.6455 171.767 46.6455ZM179.632 39.3918V41.2612H181.341V41.4851H179.632V45.8172C179.632 46.1679 179.697 46.4142 179.828 46.556C179.959 46.6978 180.14 46.7687 180.371 46.7687C180.602 46.7687 180.802 46.6791 180.971 46.5C181.14 46.3135 181.287 46.0038 181.41 45.5709L181.641 45.6269C181.564 46.0597 181.41 46.4254 181.179 46.7239C180.956 47.0224 180.609 47.1717 180.14 47.1717C179.878 47.1717 179.662 47.1381 179.493 47.0709C179.324 47.0112 179.174 46.9217 179.043 46.8023C178.873 46.6306 178.754 46.4254 178.685 46.1866C178.623 45.9478 178.592 45.6306 178.592 45.2351V41.4851H177.484V41.2612H178.592V39.5485C178.785 39.5411 178.97 39.5261 179.147 39.5038C179.324 39.4814 179.485 39.4441 179.632 39.3918Z" fill="#454545"/>
</svg>
