<svg width="24" height="25" viewBox="0 0 24 25" fill="none" xmlns="http://www.w3.org/2000/svg">
<path d="M21.3974 7.64751L9.39738 19.6475C9.29192 19.7528 9.14895 19.812 8.99988 19.812C8.85082 19.812 8.70785 19.7528 8.60239 19.6475L3.35238 14.3975C3.25302 14.2909 3.19893 14.1498 3.2015 14.0041C3.20407 13.8584 3.26311 13.7194 3.36617 13.6163C3.46923 13.5132 3.60827 13.4542 3.75399 13.4516C3.89972 13.4491 4.04075 13.5031 4.14739 13.6025L8.99988 18.4541L20.6024 6.85251C20.709 6.75315 20.8501 6.69905 20.9958 6.70163C21.1415 6.7042 21.2805 6.76323 21.3836 6.86629C21.4867 6.96935 21.5457 7.10839 21.5483 7.25412C21.5508 7.39984 21.4967 7.54088 21.3974 7.64751Z" fill="#454545"/>
</svg>
