<svg width="25" height="24" viewBox="0 0 25 24" fill="none" xmlns="http://www.w3.org/2000/svg">
<path d="M22.625 10.5C22.6235 9.20751 22.1094 7.9684 21.1955 7.05448C20.2816 6.14057 19.0425 5.62647 17.75 5.62499C17.5062 5.62552 17.2627 5.64401 17.0216 5.6803C16.6582 4.77864 16.0335 4.00623 15.2278 3.46228C14.4221 2.91833 13.4721 2.62769 12.5 2.62769C11.5279 2.62769 10.5779 2.91833 9.77224 3.46228C8.96653 4.00623 8.34185 4.77864 7.97844 5.6803C7.73732 5.64401 7.49385 5.62552 7.25001 5.62499C6.12303 5.62498 5.03085 6.01545 4.15931 6.72994C3.28777 7.44444 2.6907 8.43882 2.46968 9.54392C2.24866 10.649 2.41735 11.7966 2.94704 12.7913C3.47674 13.786 4.33472 14.5665 5.37501 15V19.5C5.37501 19.7984 5.49353 20.0845 5.70451 20.2955C5.91549 20.5065 6.20164 20.625 6.50001 20.625H18.5C18.7984 20.625 19.0845 20.5065 19.2955 20.2955C19.5065 20.0845 19.625 19.7984 19.625 19.5V15C20.5129 14.6291 21.2714 14.0041 21.8052 13.2034C22.3389 12.4028 22.6241 11.4622 22.625 10.5ZM18.875 19.5C18.875 19.5994 18.8355 19.6948 18.7652 19.7652C18.6948 19.8355 18.5995 19.875 18.5 19.875H6.50001C6.40055 19.875 6.30517 19.8355 6.23484 19.7652C6.16452 19.6948 6.12501 19.5994 6.12501 19.5V15.2428C6.49362 15.3303 6.87115 15.3747 7.25001 15.375H17.75C18.1289 15.3747 18.5064 15.3303 18.875 15.2428V19.5ZM17.75 14.625H15.98L16.6138 12.0937C16.636 11.9979 16.6197 11.8972 16.5683 11.8133C16.517 11.7295 16.4348 11.6691 16.3394 11.6452C16.244 11.6214 16.143 11.636 16.0583 11.6858C15.9735 11.7357 15.9117 11.8169 15.8863 11.9119L15.2075 14.6306H12.875V12C12.875 11.9005 12.8355 11.8051 12.7652 11.7348C12.6948 11.6645 12.5995 11.625 12.5 11.625C12.4006 11.625 12.3052 11.6645 12.2348 11.7348C12.1645 11.8051 12.125 11.9005 12.125 12V14.625H9.79251L9.11376 11.9062C9.10145 11.8585 9.07985 11.8136 9.05019 11.7742C9.02054 11.7347 8.98341 11.7016 8.94093 11.6765C8.89844 11.6514 8.85144 11.635 8.8026 11.628C8.75375 11.6211 8.70403 11.6239 8.65626 11.6362C8.60849 11.6485 8.56361 11.6701 8.52419 11.6998C8.48477 11.7295 8.45158 11.7666 8.42651 11.8091C8.40143 11.8515 8.38498 11.8986 8.37807 11.9474C8.37116 11.9962 8.37395 12.046 8.38626 12.0937L9.02001 14.625H7.25001C6.15599 14.625 5.10678 14.1904 4.33319 13.4168C3.5596 12.6432 3.12501 11.594 3.12501 10.5C3.12501 9.40597 3.5596 8.35676 4.33319 7.58317C5.10678 6.80958 6.15599 6.37498 7.25001 6.37499C7.41735 6.37543 7.58451 6.38576 7.75063 6.40592C7.66731 6.76465 7.62517 7.13171 7.62501 7.49999C7.62501 7.59944 7.66452 7.69482 7.73484 7.76515C7.80517 7.83548 7.90055 7.87499 8.00001 7.87499C8.09946 7.87499 8.19485 7.83548 8.26517 7.76515C8.3355 7.69482 8.37501 7.59944 8.37501 7.49999C8.37501 6.40597 8.8096 5.35676 9.58319 4.58317C10.3568 3.80958 11.406 3.37499 12.5 3.37499C13.594 3.37499 14.6432 3.80958 15.4168 4.58317C16.1904 5.35676 16.625 6.40597 16.625 7.49999C16.625 7.59944 16.6645 7.69482 16.7348 7.76515C16.8052 7.83548 16.9006 7.87499 17 7.87499C17.0995 7.87499 17.1948 7.83548 17.2652 7.76515C17.3355 7.69482 17.375 7.59944 17.375 7.49999C17.3748 7.13171 17.3327 6.76465 17.2494 6.40592C17.4155 6.38576 17.5827 6.37543 17.75 6.37499C18.844 6.37499 19.8932 6.80958 20.6668 7.58317C21.4404 8.35676 21.875 9.40597 21.875 10.5C21.875 11.594 21.4404 12.6432 20.6668 13.4168C19.8932 14.1904 18.844 14.625 17.75 14.625Z" fill="#454545"/>
</svg>
