<svg width="25" height="24" viewBox="0 0 25 24" fill="none" xmlns="http://www.w3.org/2000/svg">
<path d="M19.5153 19.2347C19.5857 19.305 19.6252 19.4005 19.6252 19.5C19.6252 19.5995 19.5857 19.6949 19.5153 19.7653C19.4449 19.8356 19.3495 19.8752 19.25 19.8752C19.1505 19.8752 19.055 19.8356 18.9847 19.7653L11.4847 12.2653C11.4498 12.2304 11.4222 12.1891 11.4033 12.1436C11.3844 12.098 11.3747 12.0492 11.3747 12C11.3747 11.9507 11.3844 11.9019 11.4033 11.8564C11.4222 11.8108 11.4498 11.7695 11.4847 11.7347L18.9847 4.23465C19.0195 4.19981 19.0609 4.17217 19.1064 4.15332C19.1519 4.13446 19.2007 4.12476 19.25 4.12476C19.2993 4.12476 19.3481 4.13446 19.3936 4.15332C19.4391 4.17217 19.4805 4.19981 19.5153 4.23465C19.5501 4.26949 19.5778 4.31086 19.5966 4.35638C19.6155 4.4019 19.6252 4.45069 19.6252 4.49996C19.6252 4.54924 19.6155 4.59803 19.5966 4.64355C19.5778 4.68907 19.5501 4.73044 19.5153 4.76528L12.2806 12L19.5153 19.2347ZM4.78061 12L12.0153 4.76528C12.0857 4.69491 12.1252 4.59948 12.1252 4.49996C12.1252 4.40045 12.0857 4.30502 12.0153 4.23465C11.9449 4.16429 11.8495 4.12476 11.75 4.12476C11.6505 4.12476 11.555 4.16429 11.4847 4.23465L3.98468 11.7347C3.94981 11.7695 3.92215 11.8108 3.90328 11.8564C3.88441 11.9019 3.87469 11.9507 3.87469 12C3.87469 12.0492 3.88441 12.098 3.90328 12.1436C3.92215 12.1891 3.94981 12.2304 3.98468 12.2653L11.4847 19.7653C11.5195 19.8001 11.5609 19.8278 11.6064 19.8466C11.6519 19.8655 11.7007 19.8752 11.75 19.8752C11.7993 19.8752 11.8481 19.8655 11.8936 19.8466C11.9391 19.8278 11.9805 19.8001 12.0153 19.7653C12.0501 19.7304 12.0778 19.6891 12.0966 19.6436C12.1155 19.598 12.1252 19.5492 12.1252 19.5C12.1252 19.4507 12.1155 19.4019 12.0966 19.3564C12.0778 19.3109 12.0501 19.2695 12.0153 19.2347L4.78061 12Z" fill="#6D4833"/>
</svg>
