<svg width="25" height="24" viewBox="0 0 25 24" fill="none" xmlns="http://www.w3.org/2000/svg">
<path d="M15.7653 19.2347C15.8357 19.305 15.8752 19.4005 15.8752 19.5C15.8752 19.5995 15.8357 19.6949 15.7653 19.7653C15.6949 19.8356 15.5995 19.8752 15.5 19.8752C15.4005 19.8752 15.305 19.8356 15.2347 19.7653L7.73468 12.2653C7.69981 12.2304 7.67215 12.1891 7.65328 12.1436C7.63441 12.098 7.62469 12.0492 7.62469 12C7.62469 11.9507 7.63441 11.9019 7.65328 11.8564C7.67215 11.8108 7.69981 11.7695 7.73468 11.7347L15.2347 4.23465C15.2695 4.19981 15.3109 4.17217 15.3564 4.15332C15.4019 4.13446 15.4507 4.12476 15.5 4.12476C15.5493 4.12476 15.5981 4.13446 15.6436 4.15332C15.6891 4.17217 15.7305 4.19981 15.7653 4.23465C15.8001 4.26949 15.8278 4.31086 15.8466 4.35638C15.8655 4.4019 15.8752 4.45069 15.8752 4.49996C15.8752 4.54924 15.8655 4.59803 15.8466 4.64355C15.8278 4.68907 15.8001 4.73044 15.7653 4.76528L8.53061 12L15.7653 19.2347Z" fill="#6D4833"/>
</svg>
