<svg width="25" height="24" viewBox="0 0 25 24" fill="none" xmlns="http://www.w3.org/2000/svg">
<path d="M21.5 4.875H3.5C3.20163 4.875 2.91548 4.99353 2.7045 5.2045C2.49353 5.41548 2.375 5.70163 2.375 6V18C2.375 18.2984 2.49353 18.5845 2.7045 18.7955C2.91548 19.0065 3.20163 19.125 3.5 19.125H21.5C21.7984 19.125 22.0845 19.0065 22.2955 18.7955C22.5065 18.5845 22.625 18.2984 22.625 18V6C22.625 5.70163 22.5065 5.41548 22.2955 5.2045C22.0845 4.99353 21.7984 4.875 21.5 4.875ZM3.5 5.625H21.5C21.5995 5.625 21.6948 5.66451 21.7652 5.73484C21.8355 5.80516 21.875 5.90054 21.875 6V8.625H3.125V6C3.125 5.90054 3.16451 5.80516 3.23484 5.73484C3.30516 5.66451 3.40054 5.625 3.5 5.625ZM21.5 18.375H3.5C3.40054 18.375 3.30516 18.3355 3.23484 18.2652C3.16451 18.1948 3.125 18.0995 3.125 18V9.375H21.875V18C21.875 18.0995 21.8355 18.1948 21.7652 18.2652C21.6948 18.3355 21.5995 18.375 21.5 18.375ZM19.625 15.75C19.625 15.8495 19.5855 15.9448 19.5152 16.0152C19.4448 16.0855 19.3495 16.125 19.25 16.125H16.25C16.1505 16.125 16.0552 16.0855 15.9848 16.0152C15.9145 15.9448 15.875 15.8495 15.875 15.75C15.875 15.6505 15.9145 15.5552 15.9848 15.4848C16.0552 15.4145 16.1505 15.375 16.25 15.375H19.25C19.3495 15.375 19.4448 15.4145 19.5152 15.4848C19.5855 15.5552 19.625 15.6505 19.625 15.75ZM13.625 15.75C13.625 15.8495 13.5855 15.9448 13.5152 16.0152C13.4448 16.0855 13.3495 16.125 13.25 16.125H11.75C11.6505 16.125 11.5552 16.0855 11.4848 16.0152C11.4145 15.9448 11.375 15.8495 11.375 15.75C11.375 15.6505 11.4145 15.5552 11.4848 15.4848C11.5552 15.4145 11.6505 15.375 11.75 15.375H13.25C13.3495 15.375 13.4448 15.4145 13.5152 15.4848C13.5855 15.5552 13.625 15.6505 13.625 15.75Z" fill="#454545"/>
</svg>
