<svg width="25" height="25" viewBox="0 0 25 25" fill="none" xmlns="http://www.w3.org/2000/svg">
<path d="M23.3044 12.3348C23.2725 12.2617 22.4925 10.532 20.7506 8.79012C19.1344 7.17575 16.3575 5.25012 12.2906 5.25012C8.22376 5.25012 5.44688 7.17575 3.83063 8.79012C2.08876 10.532 1.30876 12.2589 1.27688 12.3348C1.24483 12.4068 1.22827 12.4847 1.22827 12.5636C1.22827 12.6424 1.24483 12.7203 1.27688 12.7923C1.30876 12.8645 2.08876 14.5942 3.83063 16.3361C5.44688 17.9504 8.22376 19.8751 12.2906 19.8751C16.3575 19.8751 19.1344 17.9504 20.7506 16.3361C22.4925 14.5942 23.2725 12.8673 23.3044 12.7923C23.3364 12.7203 23.353 12.6424 23.353 12.5636C23.353 12.4847 23.3364 12.4068 23.3044 12.3348ZM12.2906 18.7501C9.34876 18.7501 6.78001 17.6795 4.6547 15.5692C3.76377 14.6838 3.00985 13.6704 2.41782 12.5626C3.00968 11.455 3.76362 10.4419 4.6547 9.557C6.78001 7.44575 9.34876 6.37512 12.2906 6.37512C15.2325 6.37512 17.8013 7.44575 19.9266 9.557C20.8176 10.4419 21.5716 11.455 22.1634 12.5626C21.5663 13.7073 18.5719 18.7501 12.2906 18.7501ZM12.2906 8.25012C11.4377 8.25012 10.6039 8.50305 9.89474 8.97691C9.18555 9.45077 8.63281 10.1243 8.3064 10.9123C7.98 11.7003 7.8946 12.5674 8.061 13.4039C8.2274 14.2405 8.63812 15.0089 9.24124 15.612C9.84435 16.2151 10.6128 16.6259 11.4493 16.7923C12.2859 16.9587 13.153 16.8733 13.941 16.5469C14.729 16.2204 15.4025 15.6677 15.8763 14.9585C16.3502 14.2493 16.6031 13.4156 16.6031 12.5626C16.6016 11.4193 16.1468 10.3233 15.3384 9.51487C14.53 8.70644 13.4339 8.25161 12.2906 8.25012ZM12.2906 15.7501C11.6602 15.7501 11.0439 15.5632 10.5198 15.2129C9.99557 14.8627 9.58702 14.3649 9.34577 13.7824C9.10451 13.2 9.04139 12.5591 9.16438 11.9408C9.28737 11.3225 9.59095 10.7545 10.0367 10.3087C10.4825 9.86294 11.0505 9.55936 11.6688 9.43637C12.2871 9.31338 12.928 9.3765 13.5104 9.61776C14.0929 9.85901 14.5907 10.2676 14.9409 10.7917C15.2912 11.3159 15.4781 11.9322 15.4781 12.5626C15.4781 13.408 15.1423 14.2188 14.5445 14.8165C13.9468 15.4143 13.136 15.7501 12.2906 15.7501Z" fill="#454545"/>
</svg>
