<svg width="25" height="25" viewBox="0 0 25 25" fill="none" xmlns="http://www.w3.org/2000/svg">
<g clip-path="url(#clip0_281_1669)">
<path d="M5.86387 3.75337C5.76089 3.65779 5.62587 3.60421 5.48538 3.60316C5.34488 3.60212 5.20908 3.65369 5.1047 3.74773C5.00031 3.84177 4.9349 3.97148 4.92133 4.11132C4.90776 4.25116 4.94701 4.39102 5.03137 4.50337L6.98887 6.65962C3.49387 8.71275 1.99855 12.0034 1.93387 12.1506C1.90182 12.2226 1.88525 12.3005 1.88525 12.3793C1.88525 12.4581 1.90182 12.5361 1.93387 12.6081C1.96574 12.6802 2.74574 14.4099 4.48762 16.1518C6.10387 17.7662 8.88074 19.6909 12.9476 19.6909C14.6475 19.7012 16.3293 19.3413 17.8761 18.6362L20.0323 21.0071C20.1328 21.1175 20.2729 21.1835 20.422 21.1905C20.5711 21.1976 20.7169 21.1451 20.8273 21.0446C20.9377 20.9442 21.0037 20.804 21.0107 20.6549C21.0177 20.5058 20.9653 20.36 20.8648 20.2496L5.86387 3.75337ZM10.422 10.4396L14.6407 15.0821C14.0073 15.4779 13.2551 15.6387 12.5152 15.5364C11.7754 15.4342 11.0949 15.0754 10.5927 14.5226C10.0904 13.9699 9.79812 13.2583 9.76692 12.5121C9.73573 11.7658 9.96758 11.0324 10.422 10.4396ZM12.9476 18.5659C10.0057 18.5659 7.43699 17.4952 5.31168 15.3849C4.42054 14.4997 3.6666 13.4863 3.0748 12.3784C3.47699 11.6096 4.95918 9.08025 7.7623 7.51181L9.65605 9.594C8.98182 10.393 8.62076 11.4096 8.64005 12.4549C8.65934 13.5001 9.05767 14.5028 9.76093 15.2763C10.4642 16.0498 11.4245 16.5416 12.4632 16.66C13.5019 16.7785 14.5483 16.5156 15.4076 15.9202L17.0773 17.7578C15.7683 18.2994 14.3643 18.5742 12.9476 18.5659ZM13.5476 9.24712C13.401 9.21915 13.2716 9.1341 13.1877 9.01068C13.1039 8.88725 13.0725 8.73557 13.1004 8.589C13.1284 8.44243 13.2135 8.31297 13.3369 8.2291C13.4603 8.14524 13.612 8.11384 13.7586 8.14181C14.6745 8.31975 15.5084 8.78892 16.1361 9.47938C16.7637 10.1698 17.1514 11.0446 17.2414 11.9734C17.2482 12.0469 17.2405 12.1211 17.2187 12.1917C17.1968 12.2623 17.1613 12.3279 17.1141 12.3847C17.0669 12.4416 17.009 12.4886 16.9437 12.523C16.8783 12.5575 16.8068 12.5787 16.7332 12.5856H16.6807C16.5401 12.5862 16.4043 12.534 16.3002 12.4394C16.196 12.3449 16.1311 12.2147 16.1182 12.0746C16.0514 11.3893 15.7651 10.744 15.3019 10.2345C14.8387 9.72505 14.2234 9.37875 13.5476 9.24712ZM23.9614 12.6081C23.9229 12.6943 22.9892 14.7643 20.8807 16.6506C20.826 16.7018 20.7617 16.7416 20.6914 16.7677C20.6211 16.7937 20.5463 16.8054 20.4714 16.8021C20.3965 16.7988 20.323 16.7806 20.2553 16.7485C20.1875 16.7164 20.1269 16.6711 20.0769 16.6152C20.0269 16.5594 19.9886 16.4941 19.9642 16.4232C19.9398 16.3523 19.9298 16.2773 19.9348 16.2025C19.9399 16.1277 19.9598 16.0547 19.9934 15.9877C20.0271 15.9207 20.0737 15.8611 20.1307 15.8124C21.2206 14.8333 22.1309 13.6711 22.8204 12.3784C22.2285 11.2705 21.4746 10.2571 20.5836 9.37181C18.4582 7.2615 15.8895 6.19087 12.9476 6.19087C12.3292 6.19014 11.7118 6.24031 11.1017 6.34087C11.0282 6.35472 10.9527 6.35379 10.8796 6.33812C10.8065 6.32246 10.7373 6.29238 10.6759 6.24964C10.6146 6.20691 10.5624 6.15237 10.5224 6.08923C10.4823 6.02608 10.4553 5.95559 10.4429 5.88188C10.4304 5.80816 10.4327 5.7327 10.4498 5.65991C10.4668 5.58712 10.4982 5.51845 10.5421 5.45793C10.586 5.3974 10.6415 5.34623 10.7054 5.30741C10.7693 5.26858 10.8402 5.24288 10.9142 5.23181C11.5862 5.12025 12.2664 5.06475 12.9476 5.06587C17.0145 5.06587 19.7914 6.9915 21.4076 8.60587C23.1495 10.3477 23.9295 12.0746 23.9614 12.1506C23.9934 12.2226 24.01 12.3005 24.01 12.3793C24.01 12.4581 23.9934 12.5361 23.9614 12.6081Z" fill="#454545"/>
</g>
<defs>
<clipPath id="clip0_281_1669">
<rect width="24" height="24" fill="white" transform="translate(0.94751 0.378357)"/>
</clipPath>
</defs>
</svg>
