<svg width="25" height="24" viewBox="0 0 25 24" fill="none" xmlns="http://www.w3.org/2000/svg">
<path d="M23.2222 11.5922C23.1512 11.467 23.0559 11.3573 22.9419 11.2694C22.828 11.1815 22.6976 11.1172 22.5585 11.0804C21.7537 10.876 20.9179 10.8229 20.0938 10.9238C20.6075 8.91192 20.3169 7.32754 20.0235 6.42379C19.9373 6.15363 19.7536 5.92528 19.5081 5.78331C19.2627 5.64134 18.9731 5.59594 18.696 5.65598C17.6456 5.89258 16.6559 6.34496 15.7897 6.98442C15.2178 5.65602 14.3178 4.49469 13.1741 3.60942C12.9796 3.46116 12.7418 3.38086 12.4972 3.38086C12.2527 3.38086 12.0148 3.46116 11.8203 3.60942C10.6767 4.49469 9.77663 5.65602 9.20472 6.98442C8.33841 6.34513 7.34876 5.89276 6.29847 5.65598C6.02134 5.59594 5.73178 5.64134 5.48632 5.78331C5.24085 5.92528 5.05712 6.15363 4.97097 6.42379C4.67753 7.33129 4.38691 8.91567 4.90066 10.9238C4.07741 10.8232 3.24265 10.8763 2.43878 11.0804C2.29966 11.1172 2.16929 11.1815 2.05532 11.2694C1.94135 11.3573 1.84606 11.467 1.77503 11.5922C1.69972 11.7216 1.65098 11.8647 1.63166 12.0131C1.61234 12.1615 1.62284 12.3123 1.66253 12.4566C1.96628 13.5816 2.90003 15.72 5.74253 17.4179C8.58503 19.1157 11.136 19.125 12.5 19.125C13.8641 19.125 16.401 19.125 19.2566 17.4179C22.1122 15.7107 23.0328 13.5807 23.3366 12.4566C23.376 12.3122 23.3862 12.1613 23.3665 12.0129C23.3469 11.8645 23.2978 11.7214 23.2222 11.5922ZM18.8563 6.38535C18.9525 6.36543 19.0526 6.38218 19.1371 6.4323C19.2216 6.48243 19.2842 6.56232 19.3128 6.65629C19.6878 7.82817 20.0628 10.2516 18.3032 13.3125C17.3235 15.0179 15.9491 16.3313 14.7303 17.1975C15.6875 15.9375 16.625 13.9913 16.625 11.1741C16.635 9.99528 16.4487 8.82302 16.0738 7.70535C16.8928 7.06588 17.8429 6.61515 18.8563 6.38535ZM5.68722 6.65629C5.71656 6.56307 5.7796 6.48413 5.86402 6.4349C5.94845 6.38567 6.0482 6.36967 6.14378 6.39004C7.15675 6.61844 8.10684 7.06756 8.92628 7.70535C8.5514 8.82302 8.3651 9.99528 8.37503 11.1741C8.37503 13.9913 9.31253 15.9385 10.2697 17.1957C9.05097 16.3294 7.67659 15.016 6.69691 13.3107C4.93628 10.2469 5.30847 7.82348 5.68722 6.65629ZM6.12972 16.7813C3.51409 15.2185 2.66097 13.2825 2.38909 12.2672C2.37526 12.2183 2.37153 12.167 2.37814 12.1166C2.38475 12.0661 2.40155 12.0175 2.42753 11.9738C2.4494 11.9342 2.47902 11.8995 2.51462 11.8716C2.55022 11.8437 2.59106 11.8233 2.63472 11.8116C3.45435 11.6059 4.30795 11.574 5.14066 11.7179C5.38031 12.401 5.68351 13.0601 6.04628 13.6866C7.29128 15.8522 9.10816 17.4057 10.5716 18.2907C8.9985 18.1137 7.48279 17.5964 6.12972 16.7747V16.7813ZM12.5047 18.3132C11.8937 17.8878 11.3533 17.3689 10.9035 16.7757C9.72222 15.2419 9.12503 13.3594 9.12503 11.1741C9.12503 7.02567 11.3272 4.91629 12.2741 4.20285C12.3392 4.15373 12.4185 4.12715 12.5 4.12715C12.5816 4.12715 12.6609 4.15373 12.726 4.20285C13.6728 4.91629 15.875 7.02567 15.875 11.1741C15.875 13.3594 15.2778 15.2419 14.1013 16.7691C13.6514 17.3624 13.1111 17.8812 12.5 18.3066L12.5047 18.3132ZM22.6157 12.2672C22.3419 13.2825 21.4907 15.2185 18.875 16.7813C17.5218 17.6023 16.0061 18.1189 14.4332 18.2954C15.8966 17.4104 17.7144 15.8579 18.9585 13.6913C19.3212 13.0648 19.6244 12.4057 19.8641 11.7225C20.6968 11.5782 21.5505 11.6101 22.37 11.8163C22.4137 11.828 22.4545 11.8484 22.4901 11.8763C22.5257 11.9042 22.5553 11.9389 22.5772 11.9785C22.6251 12.0645 22.6372 12.1658 22.611 12.2607L22.6157 12.2672Z" fill="#454545"/>
</svg>
