<svg width="25" height="24" viewBox="0 0 25 24" fill="none" xmlns="http://www.w3.org/2000/svg">
<path d="M20 5.62502C18.906 5.62437 17.824 5.85303 16.8237 6.29627C15.605 3.41065 12.7925 1.97627 12.6678 1.9144C12.6157 1.88833 12.5583 1.87476 12.5 1.87476C12.4417 1.87476 12.3843 1.88833 12.3322 1.9144C12.2084 1.97627 9.39781 3.4144 8.17625 6.29627C7.17604 5.85303 6.09402 5.62437 5 5.62502C4.90054 5.62502 4.80516 5.66453 4.73484 5.73486C4.66451 5.80519 4.625 5.90057 4.625 6.00002V13.5C4.625 15.5886 5.45468 17.5916 6.93153 19.0685C8.40838 20.5453 10.4114 21.375 12.5 21.375C14.5886 21.375 16.5916 20.5453 18.0685 19.0685C19.5453 17.5916 20.375 15.5886 20.375 13.5V6.00002C20.375 5.90057 20.3355 5.80519 20.2652 5.73486C20.1948 5.66453 20.0995 5.62502 20 5.62502ZM12.125 20.6157C10.3036 20.5171 8.58902 19.7248 7.33363 18.4014C6.07825 17.078 5.37737 15.3241 5.375 13.5V11.6344C7.19644 11.7329 8.91098 12.5252 10.1664 13.8486C11.4217 15.172 12.1226 16.9259 12.125 18.75V20.6157ZM12.125 15.4003C11.5153 14.1061 10.565 13.0022 9.376 12.2067C8.18696 11.4112 6.80391 10.9541 5.375 10.8844V6.3844C7.19644 6.4829 8.91098 7.27524 10.1664 8.59862C11.4217 9.92201 12.1226 11.6759 12.125 13.5V15.4003ZM8.84844 6.63284C9.7925 4.36221 11.8916 3.02627 12.5047 2.67752C13.1131 3.02627 15.2122 4.36502 16.1562 6.63284C14.4184 7.60876 13.1127 9.20438 12.5 11.101C11.8884 9.20516 10.5845 7.60967 8.84844 6.63284ZM19.625 13.5C19.6226 15.3241 18.9217 17.078 17.6664 18.4014C16.411 19.7248 14.6964 20.5171 12.875 20.6157V18.75C12.8774 16.9259 13.5783 15.172 14.8336 13.8486C16.089 12.5252 17.8036 11.7329 19.625 11.6344V13.5ZM19.625 10.8844C18.1961 10.9541 16.813 11.4112 15.624 12.2067C14.435 13.0022 13.4847 14.1061 12.875 15.4003V13.5C12.8774 11.6759 13.5783 9.92201 14.8336 8.59862C16.089 7.27524 17.8036 6.4829 19.625 6.3844V10.8844Z" fill="#454545"/>
</svg>
