<svg width="25" height="24" viewBox="0 0 25 24" fill="none" xmlns="http://www.w3.org/2000/svg">
<path d="M21.29 6.53068L13.04 2.01381C12.8744 1.92321 12.6887 1.87573 12.5 1.87573C12.3113 1.87573 12.1256 1.92321 11.96 2.01381L3.71 6.53068C3.53302 6.62752 3.38533 6.77016 3.28241 6.94368C3.17949 7.11719 3.12512 7.31519 3.125 7.51693V16.4832C3.12512 16.6849 3.17949 16.8829 3.28241 17.0564C3.38533 17.2299 3.53302 17.3726 3.71 17.4694L11.96 21.9863C12.1254 22.0773 12.3112 22.125 12.5 22.125C12.6888 22.125 12.8746 22.0773 13.04 21.9863L21.29 17.4694C21.467 17.3726 21.6147 17.2299 21.7176 17.0564C21.8205 16.8829 21.8749 16.6849 21.875 16.4832V7.51693C21.8749 7.31519 21.8205 7.11719 21.7176 6.94368C21.6147 6.77016 21.467 6.62752 21.29 6.53068ZM12.32 2.67193C12.375 2.64122 12.437 2.6251 12.5 2.6251C12.563 2.6251 12.625 2.64122 12.68 2.67193L20.8128 7.12506L17.2344 9.08349C17.2174 9.06942 17.1992 9.05687 17.18 9.04599L8.93 4.52912L12.32 2.67193ZM12.5 11.6719L4.18719 7.12506L8.14625 4.95662L16.4591 9.50724L12.5 11.6719ZM4.07 16.8094C4.0111 16.7772 3.96193 16.7298 3.92763 16.672C3.89333 16.6143 3.87515 16.5484 3.875 16.4813V7.80849L12.125 12.3235V21.2213L4.07 16.8094ZM20.93 16.8094L12.875 21.2157V12.3235L16.625 10.2713V14.2501C16.625 14.3495 16.6645 14.4449 16.7348 14.5152C16.8052 14.5855 16.9005 14.6251 17 14.6251C17.0995 14.6251 17.1948 14.5855 17.2652 14.5152C17.3355 14.4449 17.375 14.3495 17.375 14.2501V9.86068L21.125 7.80849V16.4832C21.1248 16.5503 21.1067 16.6162 21.0724 16.6739C21.0381 16.7316 20.9889 16.7791 20.93 16.8113V16.8094Z" fill="#454545"/>
</svg>
