<svg width="30" height="30" viewBox="0 0 30 30" fill="none" xmlns="http://www.w3.org/2000/svg">
<path d="M19.2469 11.7469L15.9938 15L19.2469 18.2531C19.316 18.3175 19.3714 18.3951 19.4098 18.4814C19.4482 18.5676 19.4689 18.6607 19.4706 18.7551C19.4722 18.8495 19.4549 18.9433 19.4195 19.0309C19.3841 19.1184 19.3315 19.198 19.2647 19.2647C19.198 19.3315 19.1184 19.3841 19.0309 19.4195C18.9433 19.4549 18.8495 19.4722 18.7551 19.4706C18.6607 19.4689 18.5676 19.4482 18.4814 19.4098C18.3951 19.3714 18.3175 19.316 18.2531 19.2469L15 15.9937L11.7469 19.2469C11.6136 19.3711 11.4373 19.4387 11.2551 19.4355C11.073 19.4323 10.8992 19.3585 10.7704 19.2296C10.6415 19.1008 10.5677 18.927 10.5645 18.7449C10.5613 18.5627 10.6289 18.3864 10.7531 18.2531L14.0063 15L10.7531 11.7469C10.6289 11.6136 10.5613 11.4373 10.5645 11.2551C10.5677 11.073 10.6415 10.8992 10.7704 10.7704C10.8992 10.6415 11.073 10.5677 11.2551 10.5645C11.4373 10.5613 11.6136 10.6289 11.7469 10.7531L15 14.0062L18.2531 10.7531C18.3864 10.6289 18.5627 10.5613 18.7449 10.5645C18.927 10.5677 19.1008 10.6415 19.2296 10.7704C19.3585 10.8992 19.4323 11.073 19.4355 11.2551C19.4387 11.4373 19.3711 11.6136 19.2469 11.7469ZM26.9531 15C26.9531 17.3641 26.2521 19.6751 24.9387 21.6408C23.6252 23.6065 21.7584 25.1385 19.5743 26.0432C17.3901 26.948 14.9867 27.1847 12.6681 26.7234C10.3494 26.2622 8.21954 25.1238 6.54787 23.4521C4.87619 21.7805 3.73777 19.6506 3.27656 17.3319C2.81534 15.0133 3.05205 12.6099 3.95676 10.4257C4.86146 8.24159 6.39352 6.37477 8.3592 5.06134C10.3249 3.74791 12.6359 3.04688 15 3.04688C18.169 3.0506 21.2072 4.31114 23.448 6.55197C25.6889 8.79281 26.9494 11.831 26.9531 15ZM25.5469 15C25.5469 12.914 24.9283 10.8749 23.7694 9.14047C22.6105 7.40605 20.9633 6.05423 19.0361 5.25596C17.1089 4.45769 14.9883 4.24883 12.9424 4.65578C10.8965 5.06273 9.01725 6.06723 7.54224 7.54223C6.06723 9.01724 5.06274 10.8965 4.65579 12.9424C4.24883 14.9883 4.4577 17.1089 5.25596 19.0361C6.05423 20.9633 7.40605 22.6105 9.14048 23.7694C10.8749 24.9283 12.914 25.5469 15 25.5469C17.7963 25.5438 20.4771 24.4316 22.4543 22.4543C24.4316 20.4771 25.5438 17.7963 25.5469 15Z" fill="#454545"/>
</svg>
